<?xml version="1.0" encoding="utf-8"?>
<!-- Generator: Adobe Illustrator 20.1.0, SVG Export Plug-In . SVG Version: 6.00 Build 0)  -->
<svg version="1.1" id="Layer_1" xmlns="http://www.w3.org/2000/svg" xmlns:xlink="http://www.w3.org/1999/xlink" x="0px" y="0px"
	 viewBox="0 0 512 512" style="enable-background:new 0 0 512 512;" xml:space="preserve">
<style type="text/css">
	.st0{fill:#F0F0F0;}
	.st1{fill:#1978B6;}
	.st2{fill:#2A1000;}
	.st3{fill:#D25036;}
	.st4{fill:#EBB449;}
	.st5{fill:#46A962;}
</style>
<circle class="st0" cx="256" cy="256" r="256"/>
<g>
	<path class="st1" d="M110.144,292.969c0,0-1.616,0-3.232,0c-37.163,0-67.871-30.7-67.871-67.882
		c0-38.776,30.707-69.483,67.871-69.483c38.386,0,69.491,30.707,69.491,69.483c0,30.707-20.205,55.761-48.078,65.055
		c0-1.624,0-9.295,0-12.527c21.821-7.683,35.555-29.492,35.555-52.533c0-32.319-24.645-56.968-56.968-56.968
		c-31.105,0-57.369,24.645-57.369,56.968c0,30.707,26.264,56.972,57.369,56.972c1.616,0,3.232,0,3.232,0
		C110.144,285.286,110.144,291.353,110.144,292.969L110.144,292.969z"/>
	<path class="st2" d="M276.605,290.142c27.88-9.295,48.078-34.348,48.078-65.055c0-38.776-30.703-69.483-67.875-69.483
		c-35.551,0-65.048,26.249-67.875,60.2c1.211,0,8.894,1.612,10.502,3.232c3.232-29.496,27.884-50.917,57.373-50.917
		c30.711,0,56.964,24.645,56.964,56.968c0,23.036-15.354,44.846-35.551,52.533C276.605,280.847,276.605,283.67,276.605,290.142
		L276.605,290.142z M259.635,292.969c-1.211,0-2.827,0-2.827,0c-35.551,0-63.432-24.648-67.875-58.584
		c1.211,0,7.679,1.612,12.118,3.228c4.852,24.652,27.88,44.445,55.757,44.445c0,0,1.616,0,2.827,0
		C259.635,283.67,258.424,286.902,259.635,292.969L259.635,292.969z"/>
	<path class="st3" d="M349.335,237.613c4.844,24.652,27.88,44.445,55.745,44.445c30.719,0,56.968-26.264,56.968-56.972
		c0-32.319-26.249-56.968-56.968-56.968c-29.492,0-54.133,21.42-57.357,50.917c-1.211-1.62-7.686-3.232-10.51-3.232
		c4.439-33.951,32.319-60.2,67.863-60.2c37.179,0,67.882,30.707,67.882,69.483c0,37.183-30.703,67.882-67.882,67.882
		c-33.931,0-63.428-24.648-67.867-58.584C338.42,234.385,344.88,235.997,349.335,237.613L349.335,237.613z"/>
	<path class="st4" d="M250.348,296.201c-4.443,33.935-33.939,60.196-67.878,60.196c-38.382,0-69.494-30.707-69.494-67.878
		c0-31.112,20.202-57.361,48.078-66.66c0,3.228,0,7.675,0,12.527c-21.818,9.283-35.551,29.496-35.551,54.133
		c0,30.703,24.645,56.968,56.964,56.968c29.492,0,52.525-23.021,55.757-50.901C241.454,294.581,247.521,296.201,250.348,296.201
		L250.348,296.201z M249.133,277.615c-4.852-32.331-32.728-58.584-66.667-58.584c-1.62,0-2.827,0-2.827,0c0,2.823,0,9.283,0,12.122
		c0,0,1.211-1.624,2.827-1.624c26.264,0,49.694,20.209,55.757,44.846C241.454,275.987,247.521,277.615,249.133,277.615
		L249.133,277.615z"/>
	<path class="st5" d="M399.025,296.201c-4.844,33.935-34.336,60.196-68.287,60.196c-38.374,0-69.483-30.707-69.483-67.878
		c0-31.112,20.198-57.361,48.078-66.66c1.612,3.228,0,10.911,0,12.527c-21.81,9.283-35.559,29.496-35.559,54.133
		c0,30.703,24.645,56.968,56.964,56.968c29.496,0,54.145-23.021,57.373-50.901C389.726,294.581,394.177,296.201,399.025,296.201
		L399.025,296.201z M327.915,231.157c1.211-1.624,1.211-1.624,2.823-1.624c26.264,0,49.706,20.209,55.761,44.846
		c3.228,1.612,7.679,3.24,12.527,3.24c-4.844-32.331-34.336-58.584-68.287-58.584c-1.612,0-2.823,0-2.823,0
		C327.915,221.858,327.915,228.318,327.915,231.157L327.915,231.157z"/>
</g>
</svg>
